<?xml version="1.0" standalone="no"?>
<!DOCTYPE svg PUBLIC "-//W3C//DTD SVG 20010904//EN"
 "http://www.w3.org/TR/2001/REC-SVG-20010904/DTD/svg10.dtd">
<svg version="1.0" xmlns="http://www.w3.org/2000/svg"
 width="422.000000pt" height="119.000000pt" viewBox="0 0 422.000000 119.000000"
 preserveAspectRatio="xMidYMid meet">

<g transform="translate(0.000000,119.000000) scale(0.100000,-0.100000)"
fill="#000000" stroke="#000">
<path d="M193 1169 c-94 -47 -184 -189 -185 -292 -1 -55 16 -100 48 -129 22
-19 74 -41 82 -34 2 3 -6 26 -18 51 -31 64 -25 166 13 250 28 60 62 105 80
105 14 0 3 -726 -13 -778 -7 -23 -10 -45 -7 -49 3 -3 21 3 39 13 22 13 43 39
63 79 l30 60 3 352 4 352 -24 15 c-41 26 -71 28 -115 5z"/>
<path d="M1381 1177 c-6 -6 -11 -44 -11 -84 l0 -73 -64 0 c-66 0 -76 -6 -76
-50 0 -19 35 -30 96 -30 l34 0 0 -135 c0 -100 -4 -146 -15 -173 -17 -41 -64
-112 -74 -112 -3 0 -6 18 -6 40 -1 24 -9 51 -21 67 -21 28 -107 103 -139 120
-15 9 -14 14 9 48 50 73 45 117 -12 123 -43 4 -86 -21 -106 -62 -20 -42 -20
-63 -1 -100 15 -28 14 -32 -31 -112 -54 -96 -99 -154 -120 -154 -22 0 -27 44
-22 205 3 85 1 159 -4 169 -11 20 -60 46 -88 46 -57 0 -105 -55 -155 -181 -18
-44 -35 -83 -39 -86 -3 -4 -6 51 -6 120 0 115 -2 127 -19 137 -11 5 -31 10
-45 10 l-26 0 0 -241 c0 -146 4 -248 10 -260 8 -14 21 -19 50 -19 35 0 40 3
40 23 0 87 102 348 156 397 l27 25 -7 -145 c-9 -216 11 -300 71 -300 60 0 112
54 209 218 27 45 52 82 55 82 15 0 109 -111 115 -136 8 -30 -9 -70 -39 -88
-13 -9 -26 -6 -60 12 -23 12 -47 22 -54 22 -15 0 -43 -39 -43 -61 0 -25 71
-49 143 -49 101 0 173 52 230 164 16 32 16 32 32 -39 18 -83 61 -125 125 -125
35 0 105 63 116 105 9 35 16 31 37 -20 22 -53 68 -85 121 -85 48 0 87 21 125
66 l30 37 7 -26 c9 -40 59 -77 101 -77 39 0 89 30 98 60 8 26 19 25 34 -3 18
-33 62 -57 106 -57 43 0 69 12 113 53 l32 31 0 -29 c0 -23 -18 -45 -94 -117
-127 -119 -158 -186 -121 -258 34 -66 142 -85 213 -38 68 45 86 98 90 263 l4
140 50 65 c47 62 148 251 148 277 0 9 16 13 49 13 l49 0 -10 -42 c-6 -24 -11
-86 -12 -138 -1 -111 18 -160 73 -197 52 -35 96 -31 138 14 l35 36 21 -25 c60
-71 159 -63 225 18 24 28 32 34 32 20 0 -10 15 -33 34 -52 27 -27 42 -34 74
-34 40 0 58 12 97 65 14 19 14 18 15 -16 0 -41 11 -49 70 -49 46 0 50 8 50 99
0 76 28 199 60 261 12 23 23 40 25 38 2 -1 8 -61 14 -132 17 -197 29 -226 96
-226 30 0 29 -2 44 113 11 80 52 220 71 240 4 5 10 -54 12 -130 3 -113 8 -146
25 -185 32 -70 107 -100 160 -63 34 24 70 139 52 165 -12 17 -12 17 -39 -59
-20 -58 -43 -73 -70 -46 -30 31 -43 123 -37 266 3 69 2 130 -1 136 -13 19 -73
44 -100 41 -33 -4 -57 -61 -108 -263 l-7 -30 -8 40 c-4 22 -8 79 -8 127 -1 81
-3 88 -27 107 -36 29 -79 27 -99 -3 -8 -13 -28 -61 -44 -107 l-29 -84 -1 90
c-1 50 -5 96 -10 103 -4 8 -26 16 -48 19 l-40 5 -6 -107 c-4 -60 -7 -140 -7
-179 -1 -102 -41 -183 -87 -174 -36 7 -43 45 -43 240 0 175 -1 188 -19 198
-11 5 -33 10 -50 10 -25 0 -31 -4 -31 -21 0 -19 -3 -19 -37 11 -33 29 -41 32
-85 28 -33 -4 -57 -13 -74 -29 -63 -59 -101 -194 -88 -318 5 -58 3 -69 -16
-93 -42 -53 -83 -27 -101 65 -11 53 -3 130 27 268 4 17 0 32 -12 44 -18 18
-54 17 -143 -1 -32 -7 -34 -6 -28 16 10 37 -9 60 -48 60 -60 0 -98 -78 -59
-121 23 -26 12 -72 -43 -179 -72 -142 -73 -141 -73 73 0 202 2 197 -61 197
-21 0 -32 -6 -39 -22 -5 -13 -9 -17 -9 -10 -1 20 -63 52 -102 52 -53 0 -99
-36 -134 -105 -26 -54 -30 -72 -35 -185 -6 -145 -21 -184 -68 -178 -42 5 -51
47 -51 254 -1 201 1 194 -67 194 -29 0 -34 -4 -34 -22 -1 -20 -2 -21 -13 -8
-42 54 -112 65 -168 27 -52 -35 -86 -114 -103 -234 -15 -109 -33 -153 -78
-186 -22 -17 -30 -18 -42 -8 -35 29 -44 150 -29 374 l6 97 74 0 c70 0 74 1 84
27 5 14 6 30 2 34 -4 4 -42 9 -83 11 l-75 3 3 72 c2 39 -1 74 -6 77 -23 14
-91 23 -101 13z m503 -370 c18 -25 21 -42 20 -135 0 -116 -13 -159 -58 -201
-55 -52 -106 3 -114 124 -9 141 36 250 101 243 19 -2 38 -13 51 -31z m508 -7
c22 -44 24 -162 3 -239 -18 -70 -62 -117 -99 -107 -43 11 -60 58 -61 166 0
148 38 225 110 218 23 -2 34 -11 47 -38z m862 21 c43 -48 45 -219 3 -303 -26
-51 -68 -79 -94 -62 -37 23 -48 64 -48 179 1 94 4 116 23 152 12 22 27 43 34
46 28 12 66 6 82 -12z m-844 -675 c-13 -63 -43 -96 -85 -96 -41 0 -55 16 -55
65 0 47 22 86 94 169 l51 60 3 -74 c2 -40 -2 -96 -8 -124z"/>
</g>
</svg>
